<?xml version="1.0" standalone="no"?>
<!DOCTYPE svg PUBLIC "-//W3C//DTD SVG 20010904//EN"
 "http://www.w3.org/TR/2001/REC-SVG-20010904/DTD/svg10.dtd">
<svg version="1.0" xmlns="http://www.w3.org/2000/svg"
 width="556.000000pt" height="556.000000pt" viewBox="0 0 556.000000 556.000000"
 preserveAspectRatio="xMidYMid meet">
<metadata>
Created by potrace 1.14, written by Peter Selinger 2001-2017
</metadata>
<g transform="translate(0.000000,556.000000) scale(0.100000,-0.100000)"
fill="#000000" stroke="none">
<path d="M400 4495 l0 -665 670 0 670 0 0 665 0 665 -670 0 -670 0 0 -665z
m1140 0 l0 -475 -470 0 -470 0 0 475 0 475 470 0 470 0 0 -475z"/>
<path d="M780 4495 l0 -285 290 0 290 0 0 285 0 285 -290 0 -290 0 0 -285z"/>
<path d="M2110 5065 l0 -95 -95 0 -95 0 0 -190 0 -190 100 0 100 0 0 95 0 95
90 0 90 0 0 -95 0 -95 95 0 95 0 0 -190 0 -190 190 0 190 0 0 -95 0 -95 -95 0
-95 0 0 -95 0 -95 -90 0 -90 0 0 95 0 95 -95 0 -95 0 0 95 0 95 -100 0 -100 0
0 -95 0 -95 -95 0 -95 0 0 -95 0 -95 95 0 95 0 0 -95 0 -95 100 0 100 0 0 95
0 95 90 0 90 0 0 -190 0 -190 -375 0 -375 0 0 95 0 95 -195 0 -195 0 0 -95 0
-95 190 0 190 0 0 -95 0 -95 -95 0 -95 0 0 -95 0 -95 -185 0 -185 0 0 285 0
285 -290 0 -290 0 0 -95 0 -95 -95 0 -95 0 0 -380 0 -380 100 0 100 0 0 190 0
190 95 0 95 0 0 190 0 190 90 0 90 0 0 -190 0 -190 95 0 95 0 0 -95 0 -95 190
0 190 0 0 -95 0 -95 -95 0 -95 0 0 -95 0 -95 95 0 95 0 0 -95 0 -95 -95 0 -95
0 0 -95 0 -95 -90 0 -90 0 0 285 0 285 -95 0 -95 0 0 95 0 95 -100 0 -100 0 0
-190 0 -190 -95 0 -95 0 0 -95 0 -95 -95 0 -95 0 0 -95 0 -95 100 0 100 0 0
95 0 95 90 0 90 0 0 -95 0 -95 190 0 190 0 0 -95 0 -95 100 0 100 0 0 95 0 95
90 0 90 0 0 -95 0 -95 190 0 190 0 0 -95 0 -95 95 0 95 0 0 -95 0 -95 -95 0
-95 0 0 -95 0 -95 95 0 95 0 0 -95 0 -95 -95 0 -95 0 0 -285 0 -285 95 0 95 0
0 -95 0 -95 195 0 195 0 0 95 0 95 90 0 90 0 0 -95 0 -95 290 0 290 0 0 95 0
95 -190 0 -190 0 0 95 0 95 -285 0 -285 0 0 285 0 285 90 0 90 0 0 -190 0
-190 195 0 195 0 0 95 0 95 190 0 190 0 0 190 0 190 90 0 90 0 0 -190 0 -190
95 0 95 0 0 -190 0 -190 95 0 95 0 0 -190 0 -190 195 0 195 0 0 95 0 95 -95 0
-95 0 0 285 0 285 90 0 90 0 0 -190 0 -190 95 0 95 0 0 -190 0 -190 380 0 380
0 0 95 0 95 -185 0 -185 0 0 95 0 95 95 0 95 0 0 95 0 95 90 0 90 0 0 190 0
190 -190 0 -190 0 0 -95 0 -95 95 0 95 0 0 -95 0 -95 -95 0 -95 0 0 -95 0 -95
-185 0 -185 0 0 285 0 285 95 0 95 0 0 95 0 95 280 0 280 0 0 95 0 95 -90 0
-90 0 0 190 0 190 90 0 90 0 0 95 0 95 -90 0 -90 0 0 95 0 95 -100 0 -100 0 0
-190 0 -190 -95 0 -95 0 0 -95 0 -95 -90 0 -90 0 0 95 0 95 -285 0 -285 0 0
95 0 95 -95 0 -95 0 0 95 0 95 185 0 185 0 0 -95 0 -95 100 0 100 0 0 95 0 95
90 0 90 0 0 -95 0 -95 100 0 100 0 0 95 0 95 -95 0 -95 0 0 95 0 95 95 0 95 0
0 95 0 95 95 0 95 0 0 95 0 95 90 0 90 0 0 -190 0 -190 95 0 95 0 0 190 0 190
-90 0 -90 0 0 95 0 95 -95 0 -95 0 0 95 0 95 95 0 95 0 0 95 0 95 -195 0 -195
0 0 -190 0 -190 -95 0 -95 0 0 -285 0 -285 -185 0 -185 0 0 95 0 95 95 0 95 0
0 285 0 285 -100 0 -100 0 0 -285 0 -285 -90 0 -90 0 0 190 0 190 -190 0 -190
0 0 190 0 190 95 0 95 0 0 380 0 380 -95 0 -95 0 0 95 0 95 95 0 95 0 0 190 0
190 -95 0 -95 0 0 95 0 95 -480 0 -480 0 0 -95 0 -95 -90 0 -90 0 0 95 0 95
-100 0 -100 0 0 -95z m760 -190 l0 -95 -90 0 -90 0 0 95 0 95 90 0 90 0 0 -95z
m570 -95 l0 -190 -190 0 -190 0 0 -190 0 -190 -90 0 -90 0 0 285 0 285 95 0
95 0 0 95 0 95 185 0 185 0 0 -190z m0 -475 l0 -95 -90 0 -90 0 0 95 0 95 90
0 90 0 0 -95z m-190 -190 l0 -95 -90 0 -90 0 0 95 0 95 90 0 90 0 0 -95z
m-950 -190 l0 -95 -90 0 -90 0 0 95 0 95 90 0 90 0 0 -95z m760 0 l0 -95 95 0
95 0 0 -190 0 -190 -90 0 -90 0 0 95 0 95 -95 0 -95 0 0 190 0 190 90 0 90 0
0 -95z m380 0 l0 -95 -90 0 -90 0 0 95 0 95 90 0 90 0 0 -95z m-570 -380 l0
-95 -90 0 -90 0 0 95 0 95 90 0 90 0 0 -95z m-760 -380 l0 -95 -185 0 -185 0
0 95 0 95 185 0 185 0 0 -95z m380 -190 l0 -285 95 0 95 0 0 -95 0 -95 95 0
95 0 0 -95 0 -95 -285 0 -285 0 0 -95 0 -95 -375 0 -375 0 0 95 0 95 190 0
190 0 0 95 0 95 190 0 190 0 0 380 0 380 90 0 90 0 0 -285z m950 95 l0 -190
-190 0 -190 0 0 -95 0 -95 -90 0 -90 0 0 190 0 190 95 0 95 0 0 95 0 95 185 0
185 0 0 -190z m1330 95 l0 -95 -90 0 -90 0 0 95 0 95 90 0 90 0 0 -95z m-3040
-190 l0 -95 -90 0 -90 0 0 95 0 95 90 0 90 0 0 -95z m1900 -190 l0 -95 -90 0
-90 0 0 95 0 95 90 0 90 0 0 -95z m-1710 -190 l0 -95 -185 0 -185 0 0 95 0 95
185 0 185 0 0 -95z m1520 0 l0 -95 -90 0 -90 0 0 95 0 95 90 0 90 0 0 -95z m0
-380 l0 -95 -90 0 -90 0 0 95 0 95 90 0 90 0 0 -95z m-190 -190 l0 -95 95 0
95 0 0 -95 0 -95 -95 0 -95 0 0 -95 0 -95 -90 0 -90 0 0 190 0 190 -95 0 -95
0 0 95 0 95 185 0 185 0 0 -95z m-950 -190 l0 -95 -90 0 -90 0 0 95 0 95 90 0
90 0 0 -95z m1900 -190 l0 -285 -280 0 -280 0 0 285 0 285 280 0 280 0 0 -285z
m570 190 l0 -95 -90 0 -90 0 0 95 0 95 90 0 90 0 0 -95z m-190 -190 l0 -95
-90 0 -90 0 0 95 0 95 90 0 90 0 0 -95z m-2280 -190 l0 -95 -90 0 -90 0 0 95
0 95 90 0 90 0 0 -95z m380 0 l0 -95 -90 0 -90 0 0 95 0 95 90 0 90 0 0 -95z
m190 -190 l0 -95 -90 0 -90 0 0 95 0 95 90 0 90 0 0 -95z"/>
<path d="M3820 1645 l0 -95 100 0 100 0 0 95 0 95 -100 0 -100 0 0 -95z"/>
<path d="M3820 4495 l0 -665 665 0 665 0 0 665 0 665 -665 0 -665 0 0 -665z
m1140 0 l0 -475 -470 0 -470 0 0 475 0 475 470 0 470 0 0 -475z"/>
<path d="M4200 4495 l0 -285 290 0 290 0 0 285 0 285 -290 0 -290 0 0 -285z"/>
<path d="M400 1075 l0 -665 670 0 670 0 0 665 0 665 -670 0 -670 0 0 -665z
m1140 0 l0 -475 -470 0 -470 0 0 475 0 475 470 0 470 0 0 -475z"/>
<path d="M780 1075 l0 -285 290 0 290 0 0 285 0 285 -290 0 -290 0 0 -285z"/>
<path d="M3060 885 l0 -95 195 0 195 0 0 95 0 95 -195 0 -195 0 0 -95z"/>
</g>
</svg>
